<svg width="1707" height="1577" viewBox="0 0 1707 1577" fill="none" xmlns="http://www.w3.org/2000/svg">
<path fill-rule="evenodd" clip-rule="evenodd" d="M1.88464 791.44V788.428C-1.0095 724.631 2.19526 639.438 26.2854 544H541.6C516.811 569.132 494.882 598.993 475.688 633.646C451.447 677.645 439.261 729.239 439.261 788.559C439.261 849.974 451.447 902.091 475.688 945.042C500.059 987.993 528.837 1023.74 562.282 1052.42C595.727 1081.1 630.209 1102.05 665.598 1115.28C700.988 1128.63 728.858 1135.18 749.081 1135.18H1098.44H1131.88H1726.5V1577H761.137C635.653 1577 525.337 1557.62 430.057 1518.73C334.908 1479.84 255.443 1425.62 191.665 1356.09C127.886 1286.56 80.3118 1203.8 48.9409 1107.55C17.5701 1011.43 1.88464 906.02 1.88464 791.44Z" fill="url(#paint0_linear_142_1668)" fill-opacity="0.7"/>
<path fill-rule="evenodd" clip-rule="evenodd" d="M1.88794 785.56V788.572C-0.843468 848.782 1.85744 928.049 22.4205 1017H526.764C507.966 995.464 490.963 970.926 475.691 943.354C451.45 899.355 439.265 847.761 439.265 788.441C439.265 727.026 451.45 674.909 475.691 631.958C500.062 589.007 528.84 553.258 562.285 524.58C595.73 495.902 630.212 474.95 665.601 461.725C700.991 448.368 728.862 441.821 749.084 441.821H1098.44H1131.89H1726.5V0H761.14C635.656 0 525.34 19.3801 430.061 58.272C334.911 97.1637 255.447 151.376 191.668 220.91C127.889 290.444 80.3151 373.203 48.9442 469.451C17.5734 565.567 1.88794 670.98 1.88794 785.56Z" fill="url(#paint1_linear_142_1668)" fill-opacity="0.7"/>
<defs>
<linearGradient id="paint0_linear_142_1668" x1="-1140.5" y1="1039.87" x2="1348.78" y2="-295.891" gradientUnits="userSpaceOnUse">
<stop stop-color="#B000DB"/>
<stop offset="0.607454" stop-color="#B000DB" stop-opacity="0"/>
</linearGradient>
<linearGradient id="paint1_linear_142_1668" x1="-1140.5" y1="528.814" x2="1331.25" y2="1876.04" gradientUnits="userSpaceOnUse">
<stop stop-color="#B000DB"/>
<stop offset="0.607454" stop-color="#B000DB" stop-opacity="0"/>
</linearGradient>
</defs>
</svg>
