<svg width="1214" height="2755" viewBox="0 0 1214 2755" fill="none" xmlns="http://www.w3.org/2000/svg">
<path d="M852.464 1731.39C811.87 1782.12 767.471 1827.79 719.266 1868.38C671.062 1908.97 617.783 1929.26 559.429 1929.26C528.984 1929.26 497.271 1915.31 464.288 1887.4C433.843 1856.96 418.621 1816.37 418.621 1765.64C418.621 1697.14 437.649 1631.18 475.705 1567.76C516.299 1504.34 565.772 1442.19 624.125 1381.31C682.479 1317.88 745.906 1255.73 814.408 1194.85C885.446 1131.43 950.142 1065.47 1008.5 996.975C1066.85 928.481 1115.05 856.181 1153.11 780.076C1193.7 701.434 1214 617.719 1214 528.93C1214 465.509 1203.85 402.088 1183.55 338.667C1165.8 275.246 1132.81 219.436 1084.61 171.236C1038.94 120.499 975.513 79.9101 894.326 49.4681C813.139 16.4894 710.387 0 586.069 0C489.659 0 404.667 12.6841 331.091 38.0524C260.052 60.8839 199.162 93.8627 148.42 136.989C100.215 180.115 63.4274 230.852 38.0565 289.199C15.2226 347.546 2.5371 409.698 0 475.656H266.395V452.824C266.395 407.162 275.275 365.304 293.034 327.251C313.331 286.662 339.971 252.415 372.953 224.51C405.935 196.604 442.723 175.041 483.317 159.82C523.91 144.599 565.772 136.989 608.903 136.989C649.496 136.989 690.09 144.599 730.683 159.82C773.814 175.041 811.871 196.604 844.853 224.51C880.372 249.878 908.28 281.588 928.577 319.641C948.874 355.156 959.022 395.746 959.022 441.409C959.022 520.051 939.994 592.35 901.937 658.308C866.418 721.729 820.75 782.613 764.934 840.96C711.655 899.307 653.302 957.654 589.875 1016C526.447 1071.81 465.557 1130.16 407.204 1191.04C351.388 1251.93 303.183 1316.62 262.589 1385.11C224.533 1453.61 202.968 1530.98 197.893 1617.23V1655.28C197.893 1713.63 206.773 1769.44 224.533 1822.71C242.293 1873.45 268.932 1919.11 304.451 1959.7C339.971 1997.76 384.37 2028.2 437.649 2051.03C490.928 2073.86 554.355 2085.28 627.931 2085.28C691.358 2085.28 759.86 2064.98 833.436 2024.39C909.549 1983.8 976.782 1927.99 1035.13 1856.96L852.464 1731.39ZM369.147 2549.52C369.147 2605.33 389.444 2653.53 430.038 2694.12C470.631 2734.71 518.836 2755 574.652 2755C630.468 2755 678.673 2734.71 719.266 2694.12C759.86 2653.53 780.157 2605.33 780.157 2549.52C780.157 2493.71 759.86 2445.51 719.266 2404.92C678.673 2364.33 630.468 2344.03 574.652 2344.03C518.836 2344.03 470.631 2364.33 430.038 2404.92C389.444 2445.51 369.147 2493.71 369.147 2549.52Z" fill="url(#paint0_linear_602_7530)" fill-opacity="0.25"/>
<defs>
<linearGradient id="paint0_linear_602_7530" x1="607" y1="0" x2="607" y2="2755" gradientUnits="userSpaceOnUse">
<stop stop-color="#B000DB" stop-opacity="0.28"/>
<stop offset="1" stop-color="#B000DB"/>
</linearGradient>
</defs>
</svg>
