<svg width="1726" height="1577" viewBox="0 0 1726 1577" fill="none" xmlns="http://www.w3.org/2000/svg">
<path fill-rule="evenodd" clip-rule="evenodd" d="M27.2189 544H25.2506C1.19482 639.381 -2.00505 724.522 0.888157 788.29L0.88816 788.71C-1.84226 848.89 0.854012 928.106 21.3857 1017H23.6424C30.2908 1048.02 38.396 1078.17 47.9581 1107.47C79.3381 1203.73 126.926 1286.51 190.723 1356.05C254.521 1425.6 334.008 1479.82 429.185 1518.72C524.492 1557.62 634.841 1577 760.361 1577H1726V1135.1H1131.21H1097.76H748.302C728.073 1135.1 700.194 1128.55 664.794 1115.19C629.395 1101.97 594.903 1081.01 561.448 1052.33C548.88 1041.55 536.97 1029.78 525.706 1017H525.762C507.02 995.503 490.064 971.019 474.829 943.518C451.2 900.635 439.022 850.538 438.416 793.106C438.4 791.576 438.392 790.041 438.392 788.5C438.392 786.959 438.4 785.424 438.416 783.895C439.022 726.463 451.2 676.366 474.829 633.482C491.491 603.404 510.213 576.935 531.077 554.035C540.739 543.536 550.86 533.749 561.448 524.671C594.903 495.989 629.395 475.033 664.794 461.805C700.194 448.446 728.073 441.897 748.302 441.897H1097.76H1131.21H1726V0H760.361C634.841 0 524.492 19.3835 429.185 58.282C334.008 97.1805 254.521 151.403 190.723 220.949C126.926 290.494 79.338 373.268 47.9581 469.532C40.0481 493.765 33.135 518.588 27.2189 544Z" fill="url(#paint0_linear_705_6300)" fill-opacity="0.7"/>
<defs>
<linearGradient id="paint0_linear_705_6300" x1="-1141.82" y1="-22.9961" x2="1702.09" y2="993.132" gradientUnits="userSpaceOnUse">
<stop stop-color="#B000DB"/>
<stop offset="0.607454" stop-color="#B000DB" stop-opacity="0"/>
</linearGradient>
</defs>
</svg>
