<svg width="1722" height="2133" viewBox="0 0 1722 2133" fill="none" xmlns="http://www.w3.org/2000/svg">
<path d="M1721.11 1344.06V1347.07C1721.11 1461.65 1705.43 1567.06 1674.05 1663.18C1642.68 1759.43 1595.11 1842.18 1531.33 1911.72C1467.55 1981.25 1388.09 2035.46 1292.94 2074.36C1197.66 2113.25 1087.34 2132.63 961.859 2132.63H-3.5V1690.81H591.112H624.558H973.915C994.137 1690.81 1022.01 1684.26 1057.4 1670.9C1092.79 1657.68 1127.27 1636.73 1160.71 1608.05C1194.16 1579.37 1222.94 1543.62 1247.31 1500.67C1271.55 1457.72 1283.73 1405.6 1283.73 1344.19C1283.73 1284.87 1271.55 1233.27 1247.31 1189.27C1222.94 1145.28 1194.16 1109 1160.71 1080.33C1127.27 1051.78 1092.79 1030.7 1057.4 1017.47C1022.01 1004.24 994.137 997.566 973.915 997.566H961.729H727.874C574.001 997.566 444.369 961.293 339.109 888.617C233.718 815.81 173.958 705.813 159.698 558.496L156.717 500.224C156.717 418.381 171.365 345.835 200.792 282.325C230.089 218.946 270.145 166.828 320.83 125.842C371.387 84.9856 431.666 53.6889 501.537 32.2133C571.408 10.7378 646.854 0 727.874 0H1131.03C1204.79 72.5455 1278.55 144.96 1352.31 217.506C1278.55 292.277 1204.79 367.049 1131.03 441.951H870.598H724.763C672.132 441.951 640.113 448.106 629.094 460.415C617.946 472.724 612.372 486.081 612.372 500.354C612.372 504.545 612.891 509.521 613.928 515.675C614.965 521.83 618.983 527.985 626.113 534.139C633.243 540.294 644.391 545.401 659.558 549.46C674.725 553.651 696.503 555.615 724.892 555.615H870.728H961.859C1087.34 555.615 1197.79 575.126 1292.94 613.887C1388.09 652.779 1467.55 706.991 1531.33 776.525C1617.8 870.808 1653.05 965.877 1674.05 1025.07C1718.78 1150.38 1724.74 1264.05 1721.11 1344.06Z" fill="url(#paint0_linear_142_1677)" fill-opacity="0.25"/>
<defs>
<linearGradient id="paint0_linear_142_1677" x1="859.249" y1="0" x2="859.249" y2="2132.63" gradientUnits="userSpaceOnUse">
<stop stop-color="#B000DB" stop-opacity="0"/>
<stop offset="1" stop-color="#B000DB"/>
</linearGradient>
</defs>
</svg>
