<?xml version="1.0" standalone="no"?>
<!DOCTYPE svg PUBLIC "-//W3C//DTD SVG 20010904//EN"
 "http://www.w3.org/TR/2001/REC-SVG-20010904/DTD/svg10.dtd">
<svg version="1.0" xmlns="http://www.w3.org/2000/svg"
 width="1056.000000pt" height="1056.000000pt" viewBox="0 0 1056.000000 1056.000000"
 preserveAspectRatio="xMidYMid meet">
<metadata>
Created by potrace 1.14, written by Peter Selinger 2001-2017
</metadata>
<g transform="translate(0.000000,1056.000000) scale(0.100000,-0.100000)"
fill="#000000" stroke="none">
<path d="M3859 10555 c-2 -1 -47 -6 -99 -10 -150 -10 -178 -13 -290 -30 -58
-9 -121 -18 -140 -20 -19 -3 -46 -7 -60 -10 -14 -3 -35 -7 -48 -10 -13 -2 -31
-6 -40 -9 -9 -3 -33 -8 -52 -11 -19 -3 -87 -20 -150 -36 -63 -17 -119 -31
-125 -32 -5 -2 -14 -5 -20 -9 -5 -3 -35 -13 -65 -21 -30 -8 -84 -26 -120 -40
-36 -14 -87 -33 -115 -43 -27 -11 -51 -22 -53 -26 -2 -5 -8 -8 -14 -8 -5 0
-39 -13 -75 -30 -35 -16 -68 -30 -72 -30 -5 0 -14 -7 -21 -15 -7 -8 -16 -13
-20 -10 -5 3 -10 2 -12 -2 -1 -5 -16 -15 -33 -24 -60 -30 -120 -64 -125 -69
-3 -3 -36 -26 -74 -50 -201 -129 -377 -293 -546 -507 -47 -59 -151 -227 -202
-326 -34 -67 -63 -124 -63 -127 0 -3 -17 -48 -37 -100 -31 -80 -65 -184 -73
-225 -26 -118 -46 -222 -50 -257 -16 -141 -19 -199 -19 -343 -1 -228 11 -388
36 -515 6 -30 12 -64 13 -76 2 -12 12 -57 24 -100 11 -43 23 -90 27 -104 3
-14 8 -32 11 -40 2 -8 5 -17 5 -20 0 -3 9 -27 20 -55 11 -27 27 -71 36 -97 8
-27 19 -48 24 -48 4 0 8 -6 8 -13 0 -7 9 -32 20 -55 11 -22 20 -46 20 -52 0
-5 5 -10 10 -10 6 0 10 -5 10 -11 0 -6 9 -24 21 -40 11 -16 18 -29 15 -29 -8
0 107 -170 163 -240 106 -132 275 -293 391 -373 79 -55 196 -130 210 -135 8
-3 17 -8 20 -11 11 -13 229 -124 330 -169 60 -26 230 -90 305 -114 100 -32
314 -88 390 -103 150 -28 205 -37 235 -40 19 -2 35 -5 35 -5 0 -1 11 -3 25 -4
14 -2 51 -6 83 -10 33 -4 79 -10 103 -12 24 -2 65 -6 92 -9 26 -3 142 -7 257
-10 270 -6 263 -6 446 -5 86 1 160 0 165 -1 5 -1 14 -1 19 0 12 3 289 2 302 0
4 -1 13 -1 18 0 26 5 457 1 465 -4 5 -3 11 -1 15 4 3 6 11 8 18 6 10 -3 137
-15 185 -18 6 0 12 -4 12 -9 0 -5 4 -6 10 -3 5 3 29 1 52 -6 24 -6 51 -13 61
-15 38 -7 263 -86 285 -100 12 -8 22 -12 22 -9 0 10 190 -95 270 -148 82 -55
182 -130 217 -162 85 -79 180 -177 211 -217 20 -27 40 -48 44 -48 4 0 8 -6 8
-14 0 -7 7 -19 15 -26 26 -21 125 -179 171 -270 37 -75 78 -176 89 -220 35
-145 41 -178 51 -268 9 -78 12 -333 5 -347 -3 -5 -6 -21 -6 -35 -5 -82 -33
-219 -65 -315 -11 -33 -21 -64 -22 -70 -5 -29 -107 -210 -165 -294 -101 -144
-258 -319 -355 -394 -16 -12 -41 -32 -56 -45 -63 -55 -246 -168 -357 -222
-114 -55 -284 -120 -332 -125 -12 -2 -26 -6 -31 -9 -9 -5 -102 -26 -184 -42
-18 -3 -1040 -6 -2270 -6 -1677 0 -2238 -3 -2240 -11 -2 -7 -3 -498 -3 -1092
l1 -1080 2335 0 c2064 0 2433 3 2579 20 19 2 64 6 99 10 36 3 79 8 95 10 17 2
54 7 81 10 28 3 57 8 65 10 8 2 35 6 60 9 38 5 193 35 265 51 11 2 43 10 70
16 137 31 467 131 490 149 6 4 23 10 40 14 16 4 53 19 83 33 29 14 58 26 65
27 36 6 324 152 462 234 137 82 356 234 363 254 2 4 8 8 13 8 5 0 17 8 27 17
10 10 35 32 56 48 22 17 94 84 161 150 103 102 161 165 273 300 55 65 222 308
222 321 0 4 6 15 14 23 23 28 186 339 186 356 0 3 9 24 20 48 33 72 80 197 80
212 0 8 5 15 12 15 6 0 9 3 5 6 -3 3 3 29 13 58 10 28 28 85 40 126 12 41 24
82 27 90 3 8 6 18 5 22 -1 3 5 27 12 52 8 25 12 46 10 46 -3 0 0 9 6 19 5 11
12 35 14 53 3 18 9 53 15 78 9 41 14 69 26 143 3 15 7 39 10 55 43 264 58 485
59 907 1 270 -7 491 -18 527 -3 7 -7 38 -11 68 -8 72 -10 89 -29 190 -23 126
-26 140 -43 205 -8 33 -17 68 -19 79 -7 38 -78 265 -94 301 -5 11 -20 52 -33
90 -14 39 -33 88 -42 110 -10 22 -21 49 -26 60 -28 70 -72 166 -128 275 -35
69 -69 135 -75 147 -6 13 -14 23 -18 23 -5 0 -8 5 -8 11 0 6 -14 30 -30 54
-16 24 -30 47 -30 52 0 4 -11 20 -25 35 -14 15 -25 30 -25 33 0 5 -27 44 -92
130 -4 6 -22 28 -40 50 -19 22 -50 61 -70 86 -45 57 -266 279 -334 335 -27 23
-59 50 -71 60 -11 11 -31 26 -43 34 -12 8 -34 25 -48 38 -15 12 -58 43 -97 69
-38 26 -72 49 -75 52 -3 3 -14 11 -25 18 -11 7 -60 37 -110 67 -49 30 -115 67
-145 83 -30 16 -66 36 -80 43 -14 8 -27 15 -30 15 -3 1 -45 21 -95 44 -120 57
-135 63 -240 104 -49 19 -99 38 -110 42 -11 5 -24 9 -30 11 -5 1 -46 14 -90
29 -44 14 -87 28 -95 30 -8 2 -40 11 -70 20 -75 22 -92 26 -115 30 -11 2 -45
10 -75 18 -30 9 -68 18 -85 21 -16 2 -41 7 -55 10 -14 4 -38 8 -55 11 -16 2
-40 6 -52 9 -21 5 -101 17 -138 22 -11 1 -20 3 -20 4 0 1 -16 3 -35 5 -19 2
-55 6 -80 9 -57 8 -129 15 -205 22 -33 2 -87 7 -120 10 -33 3 -366 7 -740 10
-822 5 -1198 10 -1245 18 -152 23 -252 66 -304 130 -24 29 -30 47 -34 105 -4
59 -1 77 20 123 29 61 89 125 127 134 14 4 31 9 36 13 12 7 20 9 65 16 19 3
45 8 58 11 58 12 353 16 1392 17 l1115 2 69 65 c38 36 86 81 106 100 20 19 83
78 140 130 57 52 120 111 140 130 21 19 79 73 130 120 50 47 114 105 140 130
27 25 92 86 146 135 53 50 111 104 129 120 17 17 66 62 108 100 42 39 77 74
77 79 0 5 -10 17 -22 28 -75 64 -235 207 -274 243 -11 11 -56 52 -99 90 -85
75 -86 77 -197 176 -40 36 -86 77 -101 90 -15 13 -57 51 -92 85 -36 33 -65 59
-65 58 0 -2 -10 7 -23 19 -13 12 -56 51 -96 87 -40 36 -85 76 -100 90 -16 14
-49 44 -76 68 l-48 43 -1227 -1 c-675 -1 -1230 -3 -1231 -5z"/>
</g>
</svg>
